# xmcd
#
# Track frame offsets: 
#        150
#        14312
#        26850
#        41587
#        56450
#        70675
#        84387
#        97162
#        109762
#        122625
#        134537
#        147837
#        160987
#        173350
#        186687
#        199812
#        213062
#        226375
#        239425
#        252300
#        263750
#        277275
#        289712
#        302250
#
# Disc length: 4191 seconds
#
# Revision: 4
# Processed by: cddbd v1.5.2PL0 Copyright (c) Steve Scherf et al.
# Submitted via: ExactAudioCopy v1.0b3
#
DISCID=5d105d18
DTITLE=Patsy Montana - The Best of Patsy Montana
DYEAR=2001
DGENRE=Traditional Country
TTITLE0=I Wanna Be a Cowboy's Sweetheart
TTITLE1=Gold Coast Express
TTITLE2=The She Buckaroo
TTITLE3=The Wheel of the Wagon Is Broken
TTITLE4=Lone Star
TTITLE5=Woman's Answer to Nobody's Darling
TTITLE6=Echoes from the Hills
TTITLE7=Pride of the Prairie
TTITLE8=I Only Want a Buddy Not a Sweetheart
TTITLE9=My Dear Old Arizona Home
TTITLE10=Cowboy Rhythm
TTITLE11=Little Sweetheart of the Ozarks
TTITLE12=Rodeo Sweetheart
TTITLE13=Shine on Rocky Mountain Moonlight
TTITLE14=I Wanna Be a Western Cowgirl
TTITLE15=Old Nevada Moon
TTITLE16=My Million Dollar Smile
TTITLE17=My Poncho Pony
TTITLE18=Back on Montana Plains
TTITLE19=The Moon Hangs Low (on the Ohio)
TTITLE20=My Song of the West
TTITLE21=Swing Time Cowgirl
TTITLE22=Leanin' on the Old Top Rail
TTITLE23=I Want to Be a Cowboy's Dreamgirl
EXTD=CD: Sony Music Special Products/Collectors' Choice Music A-52035/
EXTD=CCM-185-2 (2001-07-10), UPC 617742018523.
EXTT0=
EXTT1=
EXTT2=
EXTT3=
EXTT4=
EXTT5=
EXTT6=
EXTT7=
EXTT8=
EXTT9=
EXTT10=
EXTT11=
EXTT12=
EXTT13=
EXTT14=
EXTT15=
EXTT16=
EXTT17=
EXTT18=
EXTT19=
EXTT20=
EXTT21=
EXTT22=
EXTT23=
PLAYORDER=
